<?xml version="1.0" standalone="no"?>
<!DOCTYPE svg PUBLIC "-//W3C//DTD SVG 1.1//EN" "http://www.w3.org/Graphics/SVG/1.1/DTD/svg11.dtd">

<svg width="800" height="600" version="1.1" xmlns="http://www.w3.org/2000/svg">
	<ellipse stroke="black" stroke-width="1" fill="none" cx="117.5" cy="250.5" rx="30" ry="30"/>
	<text x="112.5" y="256.5" font-family="Times New Roman" font-size="20">0</text>
	<ellipse stroke="black" stroke-width="1" fill="none" cx="262.5" cy="199.5" rx="30" ry="30"/>
	<text x="257.5" y="205.5" font-family="Times New Roman" font-size="20">2</text>
	<ellipse stroke="black" stroke-width="1" fill="none" cx="207.5" cy="306.5" rx="30" ry="30"/>
	<text x="202.5" y="312.5" font-family="Times New Roman" font-size="20">4</text>
	<ellipse stroke="black" stroke-width="1" fill="none" cx="415.5" cy="199.5" rx="30" ry="30"/>
	<text x="410.5" y="205.5" font-family="Times New Roman" font-size="20">3</text>
	<ellipse stroke="black" stroke-width="1" fill="none" cx="349.5" cy="306.5" rx="30" ry="30"/>
	<text x="344.5" y="312.5" font-family="Times New Roman" font-size="20">5</text>
	<ellipse stroke="black" stroke-width="1" fill="none" cx="474.5" cy="306.5" rx="30" ry="30"/>
	<text x="469.5" y="312.5" font-family="Times New Roman" font-size="20">6</text>
	<ellipse stroke="black" stroke-width="1" fill="none" cx="600.5" cy="265.5" rx="30" ry="30"/>
	<text x="595.5" y="271.5" font-family="Times New Roman" font-size="20">7</text>
	<ellipse stroke="black" stroke-width="1" fill="none" cx="600.5" cy="265.5" rx="24" ry="24"/>
	<polygon stroke="black" stroke-width="1" points="145.801,240.546 234.199,209.454"/>
	<polygon fill="black" stroke-width="1" points="234.199,209.454 224.994,207.392 228.312,216.825"/>
	<text x="193.5" y="246.5" font-family="Times New Roman" font-size="20">ε</text>
	<polygon stroke="black" stroke-width="1" points="142.972,266.349 182.028,290.651"/>
	<polygon fill="black" stroke-width="1" points="182.028,290.651 177.877,282.179 172.594,290.67"/>
	<text x="140.5" y="299.5" font-family="Times New Roman" font-size="20">ε</text>
	<polygon stroke="black" stroke-width="1" points="292.5,199.5 385.5,199.5"/>
	<polygon fill="black" stroke-width="1" points="385.5,199.5 377.5,194.5 377.5,204.5"/>
	<text x="334.5" y="220.5" font-family="Times New Roman" font-size="20">c</text>
	<polygon stroke="black" stroke-width="1" points="443.756,209.58 572.244,255.42"/>
	<polygon fill="black" stroke-width="1" points="572.244,255.42 566.39,248.022 563.029,257.441"/>
	<text x="487.5" y="253.5" font-family="Times New Roman" font-size="20">ε</text>
	<polygon stroke="black" stroke-width="1" points="237.5,306.5 319.5,306.5"/>
	<polygon fill="black" stroke-width="1" points="319.5,306.5 311.5,301.5 311.5,311.5"/>
	<text x="274.5" y="327.5" font-family="Times New Roman" font-size="20">a</text>
	<polygon stroke="black" stroke-width="1" points="379.5,306.5 444.5,306.5"/>
	<polygon fill="black" stroke-width="1" points="444.5,306.5 436.5,301.5 436.5,311.5"/>
	<text x="407.5" y="327.5" font-family="Times New Roman" font-size="20">b</text>
	<polygon stroke="black" stroke-width="1" points="503.028,297.217 571.972,274.783"/>
	<polygon fill="black" stroke-width="1" points="571.972,274.783 562.818,272.504 565.912,282.013"/>
	<text x="540.5" y="307.5" font-family="Times New Roman" font-size="20">ε</text>
	<path stroke="black" stroke-width="1" fill="none" d="M 133.406,225.082 A 271.392,271.392 0 0 1 586.202,239.144"/>
	<polygon fill="black" stroke-width="1" points="133.406,225.082 142.103,221.427 133.932,215.662"/>
	<text x="355.5" y="100.5" font-family="Times New Roman" font-size="20">ε</text>
</svg>
